<svg height="512pt" viewBox="0 0 512 512" width="512pt" xmlns="http://www.w3.org/2000/svg"><path d="m256 361c-8.277344 0-15 6.722656-15 15s6.722656 15 15 15 15-6.722656 15-15-6.722656-15-15-15zm0 0"/><path d="m137.972656 116.761719c36.765625-16.839844 76.6875-25.761719 118.027344-25.761719 62.152344 0 121.273438 19.746094 170.945312 57.101562l-18.015624 23.964844c-44.445313-33.402344-97.324219-51.066406-152.929688-51.066406-33.039062 0-64.839844 6.960938-94.757812 19.03125l23.210937 23.210938c68.761719-22.46875 147.441406-11.574219 206.503906 32.816406l-18.019531 23.976562c-46.9375-35.265625-108.039062-45.582031-163.824219-32.136718l25.375 25.378906c41.976563-5.339844 85.804688 4.714844 120.492188 30.769531l-18.019531 23.992187c-21.546876-16.195312-47.445313-24.605468-73.691407-25.980468l40.699219 40.699218c5.230469 2.648438 10.28125 5.714844 15.035156 9.292969l-2.46875 3.273438 130.863282 129.859375c41.609374-46.710938 64.601562-106.109375 64.601562-169.183594 0-140.914062-115.046875-256-256-256-63.074219 0-122.472656 23.992188-169.1875 65.601562zm0 0"/><path d="m286.710938 307.921875c-24.390626-10.789063-53.988282-8.234375-75.667969 8.09375l-18.046875-23.964844c16.816406-12.65625 37.082031-19.214843 57.605468-20.238281l-26.238281-26.238281c-17.597656 4.128906-34.527343 11.339843-49.328125 22.464843l-18.015625-23.992187c13.21875-9.929687 27.867188-17.304687 43.140625-22.675781l-22.847656-22.84375c-13.378906 5.800781-26.378906 12.589844-38.253906 21.507812l-18.015625-23.976562c10.542969-7.925782 21.789062-14.59375 33.417969-20.386719l-22.144532-22.144531c-10.023437 5.609375-19.917968 11.523437-29.246094 18.535156l-18.015624-23.960938c8.109374-6.097656 16.554687-11.546874 25.136718-16.699218l-44.589844-44.589844c-41.609374 46.714844-65.601562 106.113281-65.601562 169.1875 0 140.914062 115.046875 256 256 256 63.074219 0 122.472656-23.992188 169.1875-65.601562zm-30.710938 113.078125c-24.8125 0-45-20.1875-45-45s20.1875-45 45-45 45 20.1875 45 45-20.1875 45-45 45zm0 0"/></svg>